<svg xmlns="http://www.w3.org/2000/svg" viewBox="0 0 960 440" role="img" aria-label="dwg2geo architecture: a DWG file flows to a header inspector, an external LibreDWG/GDAL backend, or the pure-Rust native backend that builds a CAD-neutral model and writes GeoJSON with a report.">
  <style>
    .box { fill: #ffffff; stroke: #dbe3f4; }
    .box.native { fill: #f4f1ff; stroke: #c9bcff; }
    .box.io { fill: #eafaf5; stroke: #a9e6d5; }
    .lane { fill: #f6f8fe; stroke: #e6ecf9; }
    .lbl { fill: #10192e; font-weight: 600; }
    .sub { fill: #56648a; }
    .tag { fill: #56648a; font-weight: 700; letter-spacing: .045em; }
    .tag.p { fill: #7c5cff; }
    .edge { fill: none; stroke: #9aa8cc; stroke-width: 1.6; }
    @media (prefers-color-scheme: dark) {
      .box { fill: #16203f; stroke: #2b3a60; }
      .box.native { fill: #1d1b3f; stroke: #4a3f7f; }
      .box.io { fill: #123329; stroke: #1f5a49; }
      .lane { fill: #10192e; stroke: #223050; }
      .lbl { fill: #e8edf7; } .sub, .tag { fill: #9fb0d0; } .tag.p { fill: #a99bff; }
      .edge { stroke: #46577e; }
    }
    text { font-family: -apple-system, "Segoe UI", Roboto, Helvetica, Arial, sans-serif; }
  </style>
  <defs>
    <marker id="a" markerWidth="8" markerHeight="8" refX="7" refY="3.5" orient="auto" markerUnits="userSpaceOnUse">
      <path d="M0,0 L7,3.5 L0,7 z" fill="#9aa8cc"/>
    </marker>
  </defs>

  <!-- Input -->
  <rect class="box io" x="24" y="182" width="150" height="76" rx="12"/>
  <text class="lbl" x="99" y="214" text-anchor="middle" font-size="16">DWG file</text>
  <text class="sub" x="99" y="236" text-anchor="middle" font-size="12.5">AC1027 (2013+)</text>

  <!-- Lanes -->
  <rect class="lane" x="206" y="28"  width="712" height="88"  rx="12"/>
  <rect class="lane" x="206" y="140" width="712" height="88"  rx="12"/>
  <rect class="lane" x="206" y="252" width="712" height="160" rx="12"/>
  <text class="tag"   x="224" y="48"  font-size="11">ALWAYS AVAILABLE</text>
  <text class="tag"   x="224" y="160" font-size="11">EXTERNAL BACKEND · shells out to CLI tools</text>
  <text class="tag p" x="224" y="272" font-size="11">NATIVE BACKEND · pure Rust, in-process</text>

  <!-- Edges from input -->
  <path class="edge" d="M174,204 C196,204 206,84 218,84 L230,84"   marker-end="url(#a)"/>
  <path class="edge" d="M174,220 C196,220 206,196 218,196 L230,196" marker-end="url(#a)"/>
  <path class="edge" d="M174,236 C196,236 206,318 218,318 L230,318" marker-end="url(#a)"/>

  <!-- Lane 1 -->
  <rect class="box" x="230" y="64" width="180" height="44" rx="10"/>
  <text class="lbl" x="320" y="91" text-anchor="middle" font-size="13.5">Header inspector</text>
  <path class="edge" d="M410,86 L440,86" marker-end="url(#a)"/>
  <rect class="box" x="440" y="64" width="250" height="44" rx="10"/>
  <text class="sub" x="565" y="91" text-anchor="middle" font-size="12.5">signature · size · SHA-256</text>

  <!-- Lane 2 -->
  <rect class="box" x="230" y="176" width="150" height="44" rx="10"/>
  <text class="lbl" x="305" y="203" text-anchor="middle" font-size="13">dwgread → DXF</text>
  <path class="edge" d="M380,198 L410,198" marker-end="url(#a)"/>
  <rect class="box" x="410" y="176" width="160" height="44" rx="10"/>
  <text class="lbl" x="490" y="203" text-anchor="middle" font-size="13">ogr2ogr (GDAL)</text>
  <path class="edge" d="M570,198 L600,198" marker-end="url(#a)"/>
  <rect class="box io" x="600" y="176" width="110" height="44" rx="10"/>
  <text class="lbl" x="655" y="203" text-anchor="middle" font-size="13">GeoJSON</text>

  <!-- Lane 3 -->
  <rect class="box native" x="230" y="286" width="130" height="52" rx="10"/>
  <text class="lbl" x="295" y="309" text-anchor="middle" font-size="13">acadrust</text>
  <text class="sub" x="295" y="326" text-anchor="middle" font-size="11.5">DWG reader</text>
  <path class="edge" d="M360,312 L392,312" marker-end="url(#a)"/>
  <rect class="box native" x="392" y="286" width="176" height="52" rx="10"/>
  <text class="lbl" x="480" y="309" text-anchor="middle" font-size="13">CAD-neutral model</text>
  <text class="sub" x="480" y="326" text-anchor="middle" font-size="11.5">CadFeature / CadGeometry</text>
  <path class="edge" d="M568,312 L600,312" marker-end="url(#a)"/>
  <rect class="box native" x="600" y="286" width="130" height="52" rx="10"/>
  <text class="lbl" x="665" y="309" text-anchor="middle" font-size="13">Writer</text>
  <text class="sub" x="665" y="326" text-anchor="middle" font-size="11.5">single GeoJSON exit</text>
  <path class="edge" d="M730,312 L762,312" marker-end="url(#a)"/>
  <rect class="box io" x="762" y="286" width="140" height="52" rx="10"/>
  <text class="lbl" x="832" y="309" text-anchor="middle" font-size="13">GeoJSON</text>
  <text class="sub" x="832" y="326" text-anchor="middle" font-size="11.5">+ report.json</text>

  <!-- Native pipeline caption -->
  <text class="sub" x="230" y="374" font-size="11.5">per feature: block expand · OCS→WCS · tessellate · CRS / calibrate · validate &amp; account</text>
</svg>
